<?xml version="1.0" encoding="UTF-8"?>
<svg version="1.1" xmlns="http://www.w3.org/2000/svg" width="480" height="480">
<path d="M0 0 C158.4 0 316.8 0 480 0 C480 158.4 480 316.8 480 480 C321.6 480 163.2 480 0 480 C0 321.6 0 163.2 0 0 Z " fill="#FEFEFE" transform="translate(0,0)"/>
<path d="M0 0 C-0.00967804 0.76928329 -0.01935608 1.53856659 -0.02932739 2.3311615 C-0.11199753 9.61342037 -0.14612555 16.89358445 -0.12697029 24.17623043 C-0.11880282 27.91976135 -0.12880526 31.66133464 -0.18164062 35.40454102 C-0.23203187 39.02349192 -0.23298467 42.6395119 -0.20095444 46.25863838 C-0.19722908 47.63285242 -0.21073945 49.00723425 -0.24249649 50.38108635 C-0.44275763 58.65093635 -0.44275763 58.65093635 3.19593811 65.80632019 C5.69890446 68.07031493 8.2501614 70.04866725 11 72 C12.06726778 72.95413907 13.11727103 73.9285225 14.13671875 74.93359375 C14.97847656 75.75988281 15.82023437 76.58617187 16.6875 77.4375 C28.20617261 89.13388004 37.10910889 104.32197682 42 120 C42.391875 121.051875 42.78375 122.10375 43.1875 123.1875 C49.26126124 144.21205812 45.2823282 169.95622293 35.3125 189.0625 C30.94393394 196.97767762 25.92194465 204.1698081 20 211 C19.52804199 211.54881836 19.05608398 212.09763672 18.56982422 212.66308594 C-14.3320768 250.54749193 -64.63975422 268.62858407 -112.75 277.25 C-113.57371094 277.40090088 -114.39742188 277.55180176 -115.24609375 277.70727539 C-132.52107149 280.64210363 -149.94579539 281.41625835 -167.4375 281.375 C-168.93793854 281.37268875 -168.93793854 281.37268875 -170.46868896 281.37033081 C-207.00657158 281.237198 -250.00952105 275.81289426 -282.796875 258.13671875 C-285.07166667 256.96302305 -287.34995131 256.0739696 -289.75 255.1875 C-296.56250757 252.53522076 -302.75132062 248.75103206 -309 245 C-309.93972656 244.443125 -310.87945312 243.88625 -311.84765625 243.3125 C-331.0610872 231.54109017 -348.054765 216.18283047 -360 197 C-360.82951172 195.73349609 -360.82951172 195.73349609 -361.67578125 194.44140625 C-369.24978587 182.33307514 -375.05154724 168.41604532 -375 154 C-375.04562723 152.43872548 -375.09405249 150.87753144 -375.14453125 149.31640625 C-375.8011047 123.32353056 -366.9149196 101.30098918 -349.11328125 82.26953125 C-347.18068393 80.19404319 -345.36485337 78.06325872 -343.5625 75.875 C-342.716875 74.92625 -341.87125 73.9775 -341 73 C-340.34 73 -339.68 73 -339 73 C-339 72.34 -339 71.68 -339 71 C-338.34 71 -337.68 71 -337 71 C-334.8125 73.25 -334.8125 73.25 -333 76 C-333.38204696 79.00669074 -334.52538543 81.07479988 -336.22265625 83.546875 C-336.67495605 84.21887939 -337.12725586 84.89088379 -337.59326172 85.58325195 C-338.32053467 86.65579224 -338.32053467 86.65579224 -339.0625 87.75 C-352.52466884 108.08343855 -361.37724669 127.74741463 -358.609375 152.4921875 C-356.8541961 160.6155155 -352.8872098 167.95262821 -348.96386719 175.21533203 C-348.1588801 176.7058223 -347.37727954 178.20891263 -346.6015625 179.71484375 C-335.96913008 199.07875856 -317.58438356 212.74124545 -299.0625 223.9375 C-298.46042725 224.30278809 -297.85835449 224.66807617 -297.23803711 225.04443359 C-293.27825676 227.38930698 -289.23756974 229.22022071 -285 231 C-283.22014875 231.89889464 -281.44039471 232.79799303 -279.66308594 233.7019043 C-250.58425658 248.20897722 -214.31675696 256.04090837 -181.796875 256.203125 C-180.84874939 256.21013931 -179.90062378 256.21715363 -178.92376709 256.22438049 C-175.86579604 256.24183082 -172.80801907 256.24823654 -169.75 256.25 C-168.17931763 256.25101212 -168.17931763 256.25101212 -166.5769043 256.25204468 C-110.43680416 256.19468666 -51.1631848 243.84416075 -7 207 C-6.22462891 206.35442139 -6.22462891 206.35442139 -5.43359375 205.69580078 C10.98109924 191.82661939 26.8313052 170.9498201 29 149 C29.1856474 144.76997052 29.2306348 140.54621636 29.25 136.3125 C29.270625 135.20455078 29.29125 134.09660156 29.3125 132.95507812 C29.36262066 122.2355221 27.37477763 112.57347763 22.375 103.0625 C22.03090088 102.39283203 21.68680176 101.72316406 21.33227539 101.03320312 C15.13764998 89.28165482 7.08268363 76.63473761 -4 69 C-8.30127398 69.11450883 -10.79578501 72.3986709 -13.61328125 75.28515625 C-14.41224068 76.08692543 -14.41224068 76.08692543 -15.2273407 76.90489197 C-16.35454639 78.03881623 -17.47815028 79.1763307 -18.59838867 80.31713867 C-20.28916922 82.03874387 -21.99006938 83.74976387 -23.69335938 85.45898438 C-24.79228496 86.5670955 -25.89061071 87.67580188 -26.98828125 88.78515625 C-27.73553215 89.53878197 -27.73553215 89.53878197 -28.49787903 90.30763245 C-31.19401899 93.05695324 -33.77227565 95.87039839 -36.28344727 98.79003906 C-40.46290967 103.60517937 -44.9560343 108.08130172 -49.4765625 112.57421875 C-50.80897476 113.90450859 -50.80897476 113.90450859 -52.16830444 115.26167297 C-54.50881919 117.59757084 -56.85147858 119.93128817 -59.19525146 122.26391602 C-61.57469738 124.63310264 -63.95129556 127.00514211 -66.328125 129.37695312 C-69.81059188 132.8512817 -73.29434231 136.32431125 -76.77978516 139.7956543 C-77.52487839 140.53842117 -78.26997162 141.28118805 -79.03764343 142.04646301 C-80.56372932 143.56569008 -82.09432357 145.08038897 -83.62670898 146.59326172 C-86.20386822 149.20674138 -88.70818713 151.8793389 -91.20948792 154.56520081 C-100.59442097 164.63607726 -110.28592698 174.37361862 -120.0625 184.0625 C-123.11889133 187.09204443 -126.17174614 190.12509316 -129.22265625 193.16015625 C-129.90191666 193.83111832 -130.58117706 194.50208038 -131.28102112 195.19337463 C-135.13963013 199.03233095 -138.77962342 202.98971405 -142.33500671 207.1101532 C-144.81186992 209.92151109 -147.447085 212.55323819 -150.1171875 215.1796875 C-150.93112473 215.98794479 -150.93112473 215.98794479 -151.76150513 216.81253052 C-153.46353964 218.50252849 -155.16883664 220.18917116 -156.875 221.875 C-159.14609613 224.11952621 -161.41386175 226.36734251 -163.6796875 228.6171875 C-164.19941132 229.12861298 -164.71913513 229.64003845 -165.25460815 230.16696167 C-167.97015109 232.82300122 -167.97015109 232.82300122 -170 236 C-170.66 236 -171.32 236 -172 236 C-172.11597526 228.00265109 -172.20475511 220.00565491 -172.25906086 212.00767231 C-172.28512841 208.29363057 -172.32047209 204.58016514 -172.37719727 200.86645508 C-172.43162214 197.28080287 -172.46144192 193.69570409 -172.47438622 190.10967064 C-172.48360764 188.74329098 -172.50161581 187.37694081 -172.52865028 186.0107975 C-172.56506759 184.0938446 -172.56704345 182.1763319 -172.56762695 180.2590332 C-172.57873001 179.16871292 -172.58983307 178.07839264 -172.60127258 176.95503235 C-171.79318095 172.98356086 -170.02215928 171.63032867 -167 169 C-166.2533609 168.25558151 -165.5067218 167.51116302 -164.73745728 166.7441864 C-163.9702536 165.97999893 -163.20304993 165.21581146 -162.41259766 164.4284668 C-158.05645389 160.08833771 -153.70252903 155.74599466 -149.350214 151.40202618 C-146.72796684 148.78499265 -144.1047922 146.16890294 -141.47949219 143.55493164 C-138.9233035 141.00969546 -136.36964422 138.46194555 -133.8176384 135.91251564 C-132.38873433 134.48632012 -130.95729389 133.06266721 -129.52578735 131.63908386 C-125.73391208 127.84753248 -121.98924034 124.06334899 -118.49560547 119.9934082 C-114.167892 114.95342043 -109.43468748 110.32993622 -104.71875 105.65625 C-103.73631622 104.67823581 -102.75418512 103.69991749 -101.77233887 102.72131348 C-98.16280682 99.12501016 -94.54779294 95.53423404 -90.93292236 91.94329834 C-87.8661925 88.89644421 -84.80162086 85.84744874 -81.73976135 82.79570007 C-80.32008843 81.38241371 -78.89733001 79.97222889 -77.4744873 78.56213379 C-72.972265 74.07685345 -68.62560009 69.53575578 -64.48748779 64.71234131 C-62.53392366 62.46347003 -60.45868374 60.36233263 -58.3359375 58.2734375 C-57.52382813 57.4690625 -56.71171875 56.6646875 -55.875 55.8359375 C-55.05 55.02382812 -54.225 54.21171875 -53.375 53.375 C-47.02199549 47.21005901 -47.02199549 47.21005901 -41.13671875 40.609375 C-39.3306371 38.40377621 -37.62938111 36.6696946 -35.4375 34.875 C-27.66216249 28.23356587 -20.4912431 20.86906448 -13.86328125 13.08984375 C-11.37563461 10.29971597 -8.76266964 7.64781289 -6.125 5 C-5.63572021 4.5062085 -5.14644043 4.01241699 -4.64233398 3.50366211 C-1.12378116 0 -1.12378116 0 0 0 Z " fill="#04646E" transform="translate(399,97)"/>
<path d="M0 0 C11.85687424 -0.18561221 23.71340118 -0.3276348 35.57143402 -0.41449738 C41.07809374 -0.45619431 46.58375732 -0.51272225 52.08984375 -0.60351562 C57.40674073 -0.69063757 62.72268158 -0.73831546 68.04023743 -0.75901794 C70.06568958 -0.77376488 72.09109118 -0.80256387 74.11613464 -0.84584045 C89.96966157 -1.1710717 89.96966157 -1.1710717 94.95532227 1.70458984 C96.98604018 3.70276642 98.46979974 5.60817713 100 8 C101.0667008 9.24362825 102.14809099 10.4749579 103.25 11.6875 C103.8171875 12.34621094 104.384375 13.00492188 104.96875 13.68359375 C107.51341706 16.58549291 110.12751301 19.41849528 112.75 22.25 C113.26296631 22.80413574 113.77593262 23.35827148 114.30444336 23.92919922 C115.35110236 25.05953222 116.39789657 26.18974004 117.44482422 27.31982422 C128.92172713 39.71920347 128.92172713 39.71920347 133.3125 44.8125 C136.73324077 48.7607767 140.30394221 52.56330236 143.875 56.375 C149.3212125 62.18821182 154.70749715 68.0459343 160 74 C161.00546875 75.11181641 161.00546875 75.11181641 162.03125 76.24609375 C162.6603125 76.94863281 163.289375 77.65117187 163.9375 78.375 C164.48277344 78.98085937 165.02804688 79.58671875 165.58984375 80.2109375 C167.04135381 82.0524655 168.02946548 83.87138806 169 86 C172.84485854 83.20373925 175.78391976 80.05930619 178.84765625 76.47265625 C181.50284912 73.42231671 184.24744706 70.46232788 187 67.5 C190.19224124 64.05905069 193.37178989 60.6175005 196.4375 57.0625 C199.69924353 53.28785332 203.09739754 49.64711228 206.5 46 C210.47723569 41.73664028 214.40231761 37.44719509 218.21484375 33.03515625 C223.42083264 27.10010108 228.82917118 21.33728813 234.19921875 15.55078125 C234.72942627 14.9786792 235.25963379 14.40657715 235.8059082 13.81713867 C236.81997087 12.72355405 237.83534374 11.63118225 238.85229492 10.5402832 C239.32127197 10.03456787 239.79024902 9.52885254 240.2734375 9.0078125 C240.67997559 8.57098145 241.08651367 8.13415039 241.50537109 7.68408203 C243.1987256 5.84875197 243.1987256 5.84875197 245.08174133 2.93731689 C247.40442822 0.16841149 247.92685596 0.01406492 251.75227356 -0.7215271 C253.23039841 -0.738814 254.70913967 -0.72319615 256.18676758 -0.68115234 C256.99704407 -0.6820285 257.80732056 -0.68290466 258.64215088 -0.68380737 C261.3106044 -0.67963932 263.97651903 -0.63302822 266.64453125 -0.5859375 C268.49825162 -0.57474248 270.35198977 -0.56620374 272.20573425 -0.56021118 C277.0773141 -0.53733677 281.94781519 -0.47842574 286.81896973 -0.4119873 C291.79257616 -0.35053468 296.76635746 -0.32318982 301.74023438 -0.29296875 C311.49396274 -0.22868097 321.24689155 -0.12631841 331 0 C330.04910439 1.11812749 329.09695694 2.23519044 328.14428711 3.35180664 C327.6141954 3.97398575 327.0841037 4.59616486 326.53794861 5.23719788 C323.99537302 8.15150699 321.21464138 10.80457457 318.44140625 13.49609375 C316.51363343 15.47321755 314.72606377 17.46843636 312.93530273 19.56469727 C308.70123031 24.41803657 304.16881157 28.93895343 299.59375 33.46875 C298.71021851 34.34849487 297.82668701 35.22823975 296.91638184 36.13464355 C293.6402768 39.39656945 290.3596502 42.65392564 287.07867432 45.91094971 C283.85169462 49.1148726 280.6286192 52.32269116 277.40625 55.53125 C276.56751343 56.36168823 275.72877686 57.19212646 274.86462402 58.04772949 C271.30432995 61.59328115 267.81528818 65.14616758 264.54101562 68.95898438 C260.26159043 73.93450716 255.59702452 78.50823103 250.9375 83.125 C249.97748625 84.0805937 249.01777547 85.03649184 248.05834961 85.99267578 C244.53229527 89.50550592 241.0007571 93.01280573 237.46936035 96.52026367 C234.47308792 99.49665517 231.47897769 102.47519157 228.48757935 105.45648193 C227.1011466 106.83653133 225.71162702 108.21347744 224.32202148 109.59033203 C219.97109014 113.9245086 215.79734412 118.31982034 211.79727173 122.97787476 C208.18581843 127.04115065 204.27924554 130.82075606 200.41796875 134.64453125 C199.52257889 135.53613449 198.62718903 136.42773773 197.70466614 137.34635925 C194.86803451 140.17085615 192.02826913 142.99216633 189.1875 145.8125 C185.42797669 149.54516054 181.67205804 153.28140335 177.91796875 157.01953125 C177.05342575 157.87577591 176.18888275 158.73202057 175.29814148 159.61421204 C174.50003555 160.40901474 173.70192963 161.20381744 172.87963867 162.02270508 C172.17683273 162.7202742 171.47402679 163.41784332 170.74992371 164.1365509 C168.82496495 166.0835571 168.82496495 166.0835571 167 169 C163.29305107 168.44841898 161.89657629 167.11773346 159.5625 164.25 C156.87092984 160.97765019 154.00385553 157.98161048 151 155 C149.76583306 153.76671919 148.53214888 152.53295516 147.29882812 151.29882812 C146.61461792 150.61461792 145.93040771 149.93040771 145.22546387 149.22546387 C119.70117188 123.70117188 119.70117188 123.70117188 117.74717712 121.745224 C116.29848616 120.29815249 114.84352788 118.85735844 113.38696289 117.41821289 C111.04466314 115.04524787 108.77833139 112.61874648 106.52113342 110.16542053 C97.481084 100.34956036 88.03741802 90.95594672 78.5625 81.5625 C75.39414253 78.42096325 72.22929298 75.27594978 69.06640625 72.12890625 C68.00529381 71.08024132 68.00529381 71.08024132 66.92274475 70.01039124 C63.68474025 66.78823172 60.54992618 63.53342175 57.57006836 60.07006836 C53.5425885 55.40099832 49.19287284 51.08587354 44.8125 46.75 C43.95116455 45.89245117 43.0898291 45.03490234 42.20239258 44.15136719 C39.4706888 41.43179111 36.73576725 38.715488 34 36 C30.39288149 32.41961974 26.78918198 28.83584819 23.1875 25.25 C22.37063721 24.44143555 21.55377441 23.63287109 20.7121582 22.79980469 C16.46187658 18.56757564 12.37541215 14.26419939 8.48291016 9.69946289 C7.11764517 8.13482516 5.65583915 6.65583915 4.1875 5.1875 C2 3 2 3 0 0 Z " fill="#01646E" transform="translate(57,98)"/>
<path d="M0 0 C3.63719718 0.01829699 7.27413839 0.02050855 10.91137695 0.02026367 C27.77538867 0.0453353 44.43466546 0.2245916 61.07739258 3.20581055 C61.57239258 4.69081055 61.57239258 4.69081055 62.07739258 6.20581055 C61.43672852 6.83487305 60.79606445 7.46393555 60.13598633 8.11206055 C55.58415742 12.61640391 51.1524371 17.14653869 46.98754883 22.01049805 C44.56905962 24.79002961 42.07462065 27.49729472 39.57739258 30.20581055 C36.57755732 33.46245864 33.59483607 36.72787854 30.70239258 40.08081055 C27.41721888 43.87383719 23.99974908 47.53710981 20.57739258 51.20581055 C15.24075025 56.92788959 10.04310419 62.74399645 4.95239258 68.6862793 C4.23051758 69.51772461 3.50864258 70.34916992 2.76489258 71.20581055 C2.10875977 71.96893555 1.45262695 72.73206055 0.77661133 73.51831055 C-0.92260742 75.20581055 -0.92260742 75.20581055 -2.92260742 75.20581055 C-4.29760742 73.8425293 -4.29760742 73.8425293 -5.92260742 71.89331055 C-8.86010165 68.43563505 -11.85985359 65.05336314 -14.92260742 61.70581055 C-17.70946851 58.65194481 -20.47535662 55.58898067 -23.17260742 52.45581055 C-27.21056964 47.80545595 -31.44635948 43.34014633 -35.65673828 38.84667969 C-40.48089799 33.69341009 -45.22364311 28.4735508 -49.92260742 23.20581055 C-51.54646473 21.39228671 -53.17146009 19.57978125 -54.79760742 17.76831055 C-55.5169043 16.96522461 -56.23620117 16.16213867 -56.97729492 15.3347168 C-58.82297162 13.23482815 -58.82297162 13.23482815 -60.68041992 11.6706543 C-61.92260742 10.20581055 -61.92260742 10.20581055 -61.92260742 6.20581055 C-59.52976292 5.72724165 -57.13678703 5.24956195 -54.74291992 4.77612305 C-53.0468136 4.4331431 -51.35305732 4.07771104 -49.66479492 3.69799805 C-33.24291871 0.09319595 -16.73825047 -0.08692556 0 0 Z " fill="#F9FBFB" transform="translate(228.922607421875,108.794189453125)"/>
<path d="M0 0 C1.21052032 -0.0014502 2.42104065 -0.00290039 3.66824341 -0.00439453 C21.80603599 -0.00199279 39.37810586 0.72029557 57.1875 4.375 C55.93920898 6.37573242 55.93920898 6.37573242 54.1875 8.375 C52.29321289 8.66137695 52.29321289 8.66137695 50.16015625 8.36328125 C49.36673828 8.26466797 48.57332031 8.16605469 47.75585938 8.06445312 C46.92892578 7.94005859 46.10199219 7.81566406 45.25 7.6875 C43.63694294 7.47356322 42.02365641 7.26135013 40.41015625 7.05078125 C39.13168823 6.8813501 39.13168823 6.8813501 37.82739258 6.70849609 C25.86344429 5.19709747 13.9158999 5.13470847 1.875 5.125 C0.40542343 5.12299088 0.40542343 5.12299088 -1.09384155 5.12094116 C-15.556577 5.12523194 -29.57568568 5.60750446 -43.8125 8.375 C-44.96081299 8.5910791 -44.96081299 8.5910791 -46.13232422 8.81152344 C-49.44833071 9.44063028 -52.7492828 10.10333256 -56.046875 10.82421875 C-58.8125 11.375 -58.8125 11.375 -61.8125 11.375 C-62.875 9.5 -62.875 9.5 -63.8125 7.375 C-63.4825 6.715 -63.1525 6.055 -62.8125 5.375 C-60.15441325 4.76464713 -57.5657413 4.28549029 -54.875 3.875 C-54.17181641 3.75769531 -53.46863281 3.64039062 -52.74414062 3.51953125 C-50.10489965 3.09743424 -47.46122266 2.73307866 -44.8125 2.375 C-43.59071045 2.20145996 -42.3689209 2.02791992 -41.11010742 1.84912109 C-27.43518034 0.03720085 -13.77593723 -0.01682714 0 0 Z " fill="#055D68" transform="translate(231.8125,108.625)"/>
<path d="M0 0 C30.69 0 61.38 0 93 0 C93.495 0.99 93.495 0.99 94 2 C62.98 2.33 31.96 2.66 0 3 C0 2.01 0 1.02 0 0 Z " fill="#BCCBCD" transform="translate(55,96)"/>
<path d="M0 0 C0.99 0 1.98 0 3 0 C3.17730392 7.34527538 3.34323458 14.69071568 3.49477577 22.03657055 C3.56550232 25.44779386 3.64009761 28.8588398 3.72363281 32.26977539 C3.81956601 36.19395579 3.89849536 40.11839064 3.9765625 44.04296875 C4.00875885 45.26396774 4.0409552 46.48496674 4.0741272 47.7429657 C4.10438492 49.45417351 4.10438492 49.45417351 4.13525391 51.19995117 C4.15746002 52.20144699 4.17966614 53.20294281 4.20254517 54.23478699 C3.98636644 57.18612986 3.23918295 59.32866848 2 62 C1.34 62 0.68 62 0 62 C0 41.54 0 21.08 0 0 Z " fill="#2E7079" transform="translate(227,271)"/>
<path d="M0 0 C27.72 0 55.44 0 84 0 C84 0.99 84 1.98 84 3 C56.28 2.67 28.56 2.34 0 2 C0 1.34 0 0.68 0 0 Z " fill="#BDCBCE" transform="translate(306,96)"/>
<path d="M0 0 C0.33 0.66 0.66 1.32 1 2 C-0.32 2 -1.64 2 -3 2 C-3 2.66 -3 3.32 -3 4 C-3.99 4 -4.98 4 -6 4 C-6 4.66 -6 5.32 -6 6 C-8.43681587 6.50354867 -10.87435439 7.00296756 -13.3125 7.5 C-14.00279297 7.64308594 -14.69308594 7.78617187 -15.40429688 7.93359375 C-18.32524773 8.52625044 -21.01108122 9 -24 9 C-25.0625 7.125 -25.0625 7.125 -26 5 C-25.67 4.34 -25.34 3.68 -25 3 C-22.11309824 2.35119115 -19.293585 1.82542729 -16.375 1.375 C-15.57964844 1.2409375 -14.78429687 1.106875 -13.96484375 0.96875 C-9.24762213 0.20965687 -4.77600114 -0.14084722 0 0 Z " fill="#126670" transform="translate(194,111)"/>
<path d="M0 0 C1.48125366 0.03541649 1.48125366 0.03541649 2.99243164 0.07154846 C6.1201224 0.14760056 9.24752812 0.23187347 12.375 0.31640625 C14.50649686 0.36968557 16.63800729 0.42242548 18.76953125 0.47460938 C23.97152724 0.60313566 29.17331462 0.73839665 34.375 0.87890625 C34.375 1.20890625 34.375 1.53890625 34.375 1.87890625 C33.61171387 1.9039624 32.84842773 1.92901855 32.06201172 1.95483398 C29.76698455 2.0306927 27.47198354 2.10734501 25.17700195 2.18457031 C22.54798853 2.27283063 19.91891801 2.35940526 17.28979492 2.44433594 C11.06198317 2.65009844 4.84114968 2.88976003 -1.37890625 3.2734375 C-2.89170166 3.36250366 -2.89170166 3.36250366 -4.43505859 3.45336914 C-6.32293566 3.56853829 -8.21010002 3.69621444 -10.09619141 3.83764648 C-12.63671875 3.98828125 -12.63671875 3.98828125 -16.625 3.87890625 C-17.285 2.88890625 -17.945 1.89890625 -18.625 0.87890625 C-12.34479357 -0.07663745 -6.34224251 -0.18182134 0 0 Z " fill="#1A6973" transform="translate(215.625,109.12109375)"/>
<path d="M0 0 C0 19.8 0 39.6 0 60 C-0.33 60 -0.66 60 -1 60 C-1.33 41.85 -1.66 23.7 -2 5 C-2.99 5.66 -3.98 6.32 -5 7 C-5 4 -5 4 -3.0625 1.8125 C-1 0 -1 0 0 0 Z " fill="#0F6771" transform="translate(397,99)"/>
<path d="M0 0 C6.78376359 5.55035203 12.85522968 11.76442027 19 18 C18.34 18.66 17.68 19.32 17 20 C14.15456244 17.24136787 11.32585243 14.46618001 8.5 11.6875 C7.68917969 10.90181641 6.87835938 10.11613281 6.04296875 9.30664062 C5.27597656 8.54931641 4.50898437 7.79199219 3.71875 7.01171875 C3.00654297 6.31522217 2.29433594 5.61872559 1.56054688 4.90112305 C0 3 0 3 0 0 Z " fill="#246C75" transform="translate(71,111)"/>
<path d="M0 0 C0.62109375 1.86328125 0.62109375 1.86328125 1 4 C-0.9375 6.1875 -0.9375 6.1875 -2.3203125 7.4296875 C-4.4659779 9.43563515 -6.37132969 11.60882268 -8.3125 13.8125 C-9.00988281 14.60269531 -9.70726562 15.39289063 -10.42578125 16.20703125 C-10.94527344 16.79871094 -11.46476562 17.39039063 -12 18 C-13.32 17.67 -14.64 17.34 -16 17 C-15.34773438 16.443125 -14.69546875 15.88625 -14.0234375 15.3125 C-8.63038449 10.60352156 -3.99126642 5.95445031 0 0 Z " fill="#166771" transform="translate(410,285)"/>
<path d="M0 0 C5.19184444 2.59592222 9.23754342 6.63976994 13 11 C13.33 11.99 13.66 12.98 14 14 C10.14406926 12.41438362 7.66783709 9.93490046 4.75 7 C3.85796875 6.113125 2.9659375 5.22625 2.046875 4.3125 C0 2 0 2 0 0 Z " fill="#146670" transform="translate(185,140)"/>
<path d="M0 0 C0.33 0.66 0.66 1.32 1 2 C-0.32 2 -1.64 2 -3 2 C-3 2.66 -3 3.32 -3 4 C-3.99 4 -4.98 4 -6 4 C-6 4.66 -6 5.32 -6 6 C-7.65 6 -9.3 6 -11 6 C-10.01 5.67 -9.02 5.34 -8 5 C-8 4.01 -8 3.02 -8 2 C-9.32 1.67 -10.64 1.34 -12 1 C-7.9472484 0.01751476 -4.16138263 -0.08159574 0 0 Z " fill="#267079" transform="translate(194,111)"/>
<path d="M0 0 C6.52307692 -0.36923077 6.52307692 -0.36923077 8.9375 1.5 C9.288125 1.995 9.63875 2.49 10 3 C8 5 8 5 5.0625 5.25 C2 5 2 5 -1 3 C-0.67 2.01 -0.34 1.02 0 0 Z " fill="#196B75" transform="translate(253,109)"/>
<path d="M0 0 C2.31 0 4.62 0 7 0 C7 0.99 7 1.98 7 3 C5 4 3 5 1 6 C-0.0625 4.125 -0.0625 4.125 -1 2 C-0.67 1.34 -0.34 0.68 0 0 Z " fill="#236C75" transform="translate(169,114)"/>
<path d="M0 0 C0.33 0.99 0.66 1.98 1 3 C0.54109375 3.38671875 0.0821875 3.7734375 -0.390625 4.171875 C-3.725081 7.00195951 -6.96501303 9.84361355 -10 13 C-10 10 -10 10 -7.8125 7.51953125 C-6.884375 6.62621094 -5.95625 5.73289063 -5 4.8125 C-4.071875 3.91144531 -3.14375 3.01039063 -2.1875 2.08203125 C-1.1046875 1.05142578 -1.1046875 1.05142578 0 0 Z " fill="#2F737C" transform="translate(297,200)"/>
<path d="M0 0 C0.33 0.99 0.66 1.98 1 3 C0.01 4.485 0.01 4.485 -1 6 C-1.66 6 -2.32 6 -3 6 C-3.226875 6.61875 -3.45375 7.2375 -3.6875 7.875 C-5.37929835 10.61410209 -6.99244161 11.05024472 -10 12 C-9.61328125 11.55269531 -9.2265625 11.10539063 -8.828125 10.64453125 C-5.81609925 7.1478974 -2.85678969 3.62592537 0 0 Z " fill="#246D76" transform="translate(252,156)"/>
<path d="M0 0 C0.33 0.99 0.66 1.98 1 3 C-0.49739583 4.20442708 -1.99479167 5.40885417 -3.4921875 6.61328125 C-5.25292107 8.12270545 -5.25292107 8.12270545 -7 11 C-7.99 10.67 -8.98 10.34 -10 10 C-6.7 6.7 -3.4 3.4 0 0 Z " fill="#276F78" transform="translate(252,246)"/>
<path d="M0 0 C1.32 0.33 2.64 0.66 4 1 C3.67 1.33 3.34 1.66 3 2 C3.66 2.66 4.32 3.32 5 4 C1.7 4.66 -1.6 5.32 -5 6 C-3.35 4.02 -1.7 2.04 0 0 Z " fill="#035A66" transform="translate(176,114)"/>
<path d="M0 0 C1.12894876 0.93274109 2.25300876 1.87140122 3.375 2.8125 C4.00148437 3.33457031 4.62796875 3.85664062 5.2734375 4.39453125 C7 6 7 6 9 9 C6 9 6 9 4.39453125 7.79296875 C3.87246094 7.26316406 3.35039062 6.73335938 2.8125 6.1875 C2.01779297 5.40439453 2.01779297 5.40439453 1.20703125 4.60546875 C0 3 0 3 0 0 Z " fill="#1D6872" transform="translate(158,109)"/>
<path d="M0 0 C2.93200474 2.85276137 5.64315404 5.65079784 8 9 C5 9 5 9 2.3125 6.75 C0 4 0 4 0 0 Z " fill="#29717B" transform="translate(54,310)"/>
<path d="M0 0 C0.33 0.99 0.66 1.98 1 3 C-3.455 6.96 -3.455 6.96 -8 11 C-8.66 10.67 -9.32 10.34 -10 10 C-6.7 6.7 -3.4 3.4 0 0 Z " fill="#3C7A83" transform="translate(340,156)"/>
<path d="M0 0 C2 1 2 1 2.8515625 3.06640625 C3.10679688 3.89011719 3.36203125 4.71382813 3.625 5.5625 C3.88539062 6.38878906 4.14578125 7.21507812 4.4140625 8.06640625 C4.60742188 8.70449219 4.80078125 9.34257812 5 10 C2 9 2 9 0.8125 7.25 C-0.10819096 4.70039426 -0.14948718 2.69076919 0 0 Z " fill="#1C6771" transform="translate(43,261)"/>
<path d="M0 0 C0.33 0.99 0.66 1.98 1 3 C-0.98 4.98 -2.96 6.96 -5 9 C-5.66 8.67 -6.32 8.34 -7 8 C-4.69 5.36 -2.38 2.72 0 0 Z " fill="#31767E" transform="translate(283,214)"/>
<path d="M0 0 C0.66 0.66 1.32 1.32 2 2 C-0.64 4.97 -3.28 7.94 -6 11 C-6.66 10.34 -7.32 9.68 -8 9 C-7.50628906 8.51789063 -7.01257813 8.03578125 -6.50390625 7.5390625 C-5.86324219 6.90742188 -5.22257812 6.27578125 -4.5625 5.625 C-3.92441406 4.99851563 -3.28632813 4.37203125 -2.62890625 3.7265625 C-0.92117824 2.08276939 -0.92117824 2.08276939 0 0 Z " fill="#276F79" transform="translate(356,139)"/>
<path d="M0 0 C0.33 0.99 0.66 1.98 1 3 C-0.40445835 5.2636564 -2.1967913 7.0208685 -4 9 C-4.66 8.34 -5.32 7.68 -6 7 C-4.02 4.69 -2.04 2.38 0 0 Z " fill="#32767F" transform="translate(58,170)"/>
<path d="M0 0 C1.32 0.33 2.64 0.66 4 1 C0.535 3.97 0.535 3.97 -3 7 C-2 3 -2 3 0 0 Z " fill="#095F6A" transform="translate(383,99)"/>
<path d="M0 0 C0.66 0.66 1.32 1.32 2 2 C1.01 4.31 0.02 6.62 -1 9 C-1.66 8.67 -2.32 8.34 -3 8 C-1.125 2.25 -1.125 2.25 0 0 Z " fill="#17626D" transform="translate(45,205)"/>
<path d="M0 0 C0.99 0 1.98 0 3 0 C3.33 0.99 3.66 1.98 4 3 C2.35 4.32 0.7 5.64 -1 7 C-1.66 6.34 -2.32 5.68 -3 5 C-1.68 4.01 -0.36 3.02 1 2 C0.67 1.34 0.34 0.68 0 0 Z " fill="#CAD8DA" transform="translate(287,112)"/>
<path d="M0 0 C0.66 0.33 1.32 0.66 2 1 C0.02 3.31 -1.96 5.62 -4 8 C-4.66 7.34 -5.32 6.68 -6 6 C-4.02 4.02 -2.04 2.04 0 0 Z " fill="#1B6B74" transform="translate(310,187)"/>
</svg>
